<svg width="36" height="34" viewBox="0 0 36 34" fill="none" xmlns="http://www.w3.org/2000/svg">
<path d="M35.8008 16.8865C35.8008 13.6725 34.7763 10.5308 32.8568 7.85847C30.9373 5.18617 28.209 3.10336 25.017 1.87344C21.825 0.643515 18.3127 0.321711 14.9241 0.948721C11.5354 1.57573 8.42282 3.12339 5.97977 5.396C3.53672 7.6686 1.87298 10.5641 1.19895 13.7163C0.524911 16.8685 0.87085 20.1358 2.19302 23.1051C3.51519 26.0744 5.7542 28.6123 8.62692 30.3979C11.4996 32.1834 14.877 33.1365 18.332 33.1365C22.9637 33.1323 27.4043 31.419 30.6794 28.3724C33.9545 25.3258 35.7963 21.195 35.8008 16.8865ZM19.6758 30.574V20.6365H23.707C24.0634 20.6365 24.4052 20.5048 24.6572 20.2704C24.9092 20.0359 25.0508 19.718 25.0508 19.3865C25.0508 19.055 24.9092 18.737 24.6572 18.5026C24.4052 18.2682 24.0634 18.1365 23.707 18.1365H19.6758V14.3865C19.6758 13.7234 19.9589 13.0876 20.4629 12.6187C20.9669 12.1499 21.6505 11.8865 22.3633 11.8865H25.0508C25.4072 11.8865 25.749 11.7548 26.001 11.5204C26.253 11.2859 26.3945 10.968 26.3945 10.6365C26.3945 10.305 26.253 9.98702 26.001 9.7526C25.749 9.51818 25.4072 9.38648 25.0508 9.38648H22.3633C20.9391 9.3906 19.5745 9.91871 18.5675 10.8555C17.5604 11.7923 16.9927 13.0617 16.9883 14.3865V18.1365H12.957C12.6007 18.1365 12.2589 18.2682 12.0069 18.5026C11.7549 18.737 11.6133 19.055 11.6133 19.3865C11.6133 19.718 11.7549 20.0359 12.0069 20.2704C12.2589 20.5048 12.6007 20.6365 12.957 20.6365H16.9883V30.574C13.2002 30.2523 9.69133 28.5846 7.19141 25.9177C4.69149 23.2508 3.39302 19.79 3.5661 16.2553C3.73918 12.7205 5.37048 9.38391 8.12068 6.93946C10.8709 4.49501 14.5282 3.13092 18.332 3.13092C22.1358 3.13092 25.7932 4.49501 28.5434 6.93946C31.2936 9.38391 32.9249 12.7205 33.098 16.2553C33.2711 19.79 31.9726 23.2508 29.4727 25.9177C26.9728 28.5846 23.4638 30.2523 19.6758 30.574Z" fill="#E7E5E4"/>
</svg>
