<svg width="34" height="34" viewBox="0 0 34 34" fill="none" xmlns="http://www.w3.org/2000/svg">
<path d="M16.9855 2.83334C9.16551 2.83334 2.83301 9.18 2.83301 17C2.83301 24.82 9.16551 31.1667 16.9855 31.1667C24.8197 31.1667 31.1663 24.82 31.1663 17C31.1663 9.18 24.8197 2.83334 16.9855 2.83334ZM16.9997 28.3333C10.738 28.3333 5.66634 23.2617 5.66634 17C5.66634 10.7383 10.738 5.66667 16.9997 5.66667C23.2613 5.66667 28.333 10.7383 28.333 17C28.333 23.2617 23.2613 28.3333 16.9997 28.3333Z" fill="#FAEEEE"/>
<path d="M17.708 9.91666H15.583V18.4167L23.0205 22.8792L24.083 21.1367L17.708 17.3542V9.91666Z" fill="#FAEEEE"/>
</svg>
