<svg width="35" height="32" viewBox="0 0 35 32" fill="none" xmlns="http://www.w3.org/2000/svg">
<path d="M17.5 8.8125C15.9718 8.8125 14.478 9.23404 13.2074 10.0238C11.9367 10.8136 10.9464 11.9361 10.3616 13.2495C9.77678 14.5628 9.62377 16.008 9.9219 17.4022C10.22 18.7965 10.9559 20.0771 12.0365 21.0823C13.1171 22.0875 14.4938 22.7721 15.9926 23.0494C17.4914 23.3267 19.045 23.1844 20.4568 22.6404C21.8687 22.0964 23.0754 21.1751 23.9244 19.9932C24.7734 18.8112 25.2266 17.4216 25.2266 16C25.2266 14.0938 24.4125 12.2656 22.9635 10.9177C21.5145 9.56975 19.5492 8.8125 17.5 8.8125ZM17.5 21.3125C16.3705 21.3125 15.2663 21.0009 14.3272 20.4172C13.388 19.8334 12.656 19.0037 12.2238 18.033C11.7915 17.0623 11.6784 15.9941 11.8988 14.9636C12.1192 13.9331 12.6631 12.9865 13.4618 12.2435C14.2604 11.5005 15.278 10.9946 16.3859 10.7896C17.4937 10.5846 18.6419 10.6898 19.6855 11.0919C20.729 11.494 21.6209 12.1749 22.2485 13.0485C22.876 13.9222 23.2109 14.9493 23.2109 16C23.2065 17.4077 22.6034 18.7566 21.5333 19.752C20.4633 20.7473 19.0133 21.3084 17.5 21.3125ZM24.8906 0.6875H10.1094C7.70378 0.6875 5.39671 1.57645 3.6957 3.15879C1.99468 4.74113 1.03906 6.88724 1.03906 9.125V22.875C1.03906 25.1128 1.99468 27.2589 3.6957 28.8412C5.39671 30.4236 7.70378 31.3125 10.1094 31.3125H24.8906C27.2962 31.3125 29.6033 30.4236 31.3043 28.8412C33.0053 27.2589 33.9609 25.1128 33.9609 22.875V9.125C33.9609 6.88724 33.0053 4.74113 31.3043 3.15879C29.6033 1.57645 27.2962 0.6875 24.8906 0.6875ZM31.9453 22.875C31.9453 24.6155 31.2021 26.2847 29.879 27.5154C28.556 28.7461 26.7616 29.4375 24.8906 29.4375H10.1094C8.23836 29.4375 6.44397 28.7461 5.12096 27.5154C3.79795 26.2847 3.05469 24.6155 3.05469 22.875V9.125C3.05469 7.38452 3.79795 5.71532 5.12096 4.48461C6.44397 3.2539 8.23836 2.5625 10.1094 2.5625H24.8906C26.7616 2.5625 28.556 3.2539 29.879 4.48461C31.2021 5.71532 31.9453 7.38452 31.9453 9.125V22.875ZM27.9141 7.875C27.9141 8.18403 27.8156 8.48613 27.631 8.74308C27.4464 9.00003 27.1841 9.2003 26.8772 9.31856C26.5702 9.43682 26.2325 9.46777 25.9067 9.40748C25.5809 9.34719 25.2816 9.19837 25.0467 8.97985C24.8117 8.76134 24.6518 8.48292 24.587 8.17983C24.5222 7.87673 24.5554 7.56257 24.6825 7.27706C24.8097 6.99155 25.025 6.74752 25.3012 6.57583C25.5774 6.40414 25.9022 6.3125 26.2344 6.3125C26.6799 6.3125 27.1071 6.47712 27.4221 6.77015C27.7371 7.06317 27.9141 7.4606 27.9141 7.875Z" fill="#E7E5E4" stroke="#E7E5E4" stroke-width="0.5"/>
</svg>
