<svg width="36" height="32" viewBox="0 0 36 32" fill="none" xmlns="http://www.w3.org/2000/svg">
<path d="M12.1562 13.5V23.5C12.1562 23.7486 12.0476 23.9871 11.8542 24.1629C11.6608 24.3387 11.3985 24.4375 11.125 24.4375C10.8515 24.4375 10.5892 24.3387 10.3958 24.1629C10.2024 23.9871 10.0938 23.7486 10.0938 23.5V13.5C10.0938 13.2514 10.2024 13.0129 10.3958 12.8371C10.5892 12.6613 10.8515 12.5625 11.125 12.5625C11.3985 12.5625 11.6608 12.6613 11.8542 12.8371C12.0476 13.0129 12.1562 13.2514 12.1562 13.5ZM11.125 6.9375C10.7851 6.9375 10.4528 7.02914 10.1701 7.20083C9.88747 7.37252 9.66717 7.61655 9.53708 7.90206C9.40699 8.18757 9.37296 8.50173 9.43927 8.80483C9.50559 9.10792 9.66929 9.38633 9.90966 9.60485C10.15 9.82337 10.4563 9.97219 10.7897 10.0325C11.1231 10.0928 11.4687 10.0618 11.7827 9.94356C12.0968 9.8253 12.3652 9.62503 12.5541 9.36808C12.7429 9.11113 12.8438 8.80903 12.8438 8.5C12.8438 8.0856 12.6627 7.68817 12.3403 7.39515C12.018 7.10212 11.5808 6.9375 11.125 6.9375ZM34.8438 2.875V29.125C34.8438 29.7052 34.5902 30.2616 34.139 30.6718C33.6877 31.082 33.0757 31.3125 32.4375 31.3125H3.5625C2.92432 31.3125 2.31228 31.082 1.86102 30.6718C1.40977 30.2616 1.15625 29.7052 1.15625 29.125V2.875C1.15625 2.29484 1.40977 1.73844 1.86102 1.3282C2.31228 0.917968 2.92432 0.6875 3.5625 0.6875H32.4375C33.0757 0.6875 33.6877 0.917968 34.139 1.3282C34.5902 1.73844 34.8438 2.29484 34.8438 2.875ZM32.7812 2.875C32.7812 2.79212 32.745 2.71263 32.6806 2.65403C32.6161 2.59542 32.5287 2.5625 32.4375 2.5625H3.5625C3.47133 2.5625 3.3839 2.59542 3.31943 2.65403C3.25497 2.71263 3.21875 2.79212 3.21875 2.875V29.125C3.21875 29.2079 3.25497 29.2874 3.31943 29.346C3.3839 29.4046 3.47133 29.4375 3.5625 29.4375H32.4375C32.5287 29.4375 32.6161 29.4046 32.6806 29.346C32.745 29.2874 32.7812 29.2079 32.7812 29.125V2.875ZM21.4375 12.5625C20.0519 12.5635 18.7118 13.0121 17.6562 13.8281V13.5C17.6562 13.2514 17.5476 13.0129 17.3542 12.8371C17.1608 12.6613 16.8985 12.5625 16.625 12.5625C16.3515 12.5625 16.0892 12.6613 15.8958 12.8371C15.7024 13.0129 15.5938 13.2514 15.5938 13.5V23.5C15.5938 23.7486 15.7024 23.9871 15.8958 24.1629C16.0892 24.3387 16.3515 24.4375 16.625 24.4375C16.8985 24.4375 17.1608 24.3387 17.3542 24.1629C17.5476 23.9871 17.6562 23.7486 17.6562 23.5V17.875C17.6562 16.9633 18.0546 16.089 18.7638 15.4443C19.4729 14.7997 20.4347 14.4375 21.4375 14.4375C22.4403 14.4375 23.4021 14.7997 24.1112 15.4443C24.8204 16.089 25.2188 16.9633 25.2188 17.875V23.5C25.2188 23.7486 25.3274 23.9871 25.5208 24.1629C25.7142 24.3387 25.9765 24.4375 26.25 24.4375C26.5235 24.4375 26.7858 24.3387 26.9792 24.1629C27.1726 23.9871 27.2812 23.7486 27.2812 23.5V17.875C27.2767 16.4673 26.6596 15.1184 25.5646 14.123C24.4697 13.1277 22.986 12.5666 21.4375 12.5625Z" fill="#E7E5E4" stroke="#E7E5E4" stroke-width="0.5"/>
</svg>
